<?xml version="1.0" encoding="UTF-8"?>
<svg version="1.1" xmlns="http://www.w3.org/2000/svg" width="360" height="360">
<path d="M0 0 C118.8 0 237.6 0 360 0 C360 118.8 360 237.6 360 360 C241.2 360 122.4 360 0 360 C0 241.2 0 122.4 0 0 Z " fill="#FEFEFE" transform="translate(0,0)"/>
<path d="M0 0 C26.64224934 -3.09599751 26.64224934 -3.09599751 34.42089844 1.39892578 C38.58241775 5.63877156 40.76985206 11.14809396 43.22070312 16.48486328 C46.51399823 22.991019 50.71737362 28.9345721 54.78582764 34.97503662 C57.31021091 38.73673406 59.78836973 42.52867743 62.2734375 46.31640625 C69.46620367 57.24388081 76.71913542 68.13104291 84 79 C83.99830811 78.15405273 83.99830811 78.15405273 83.99658203 77.29101562 C84.00881746 74.69284931 84.06662869 72.09752346 84.125 69.5 C84.12113281 68.1696875 84.12113281 68.1696875 84.1171875 66.8125 C84.29751795 60.68126484 85.6526856 57.14900517 89.52294922 52.38085938 C91 51 91 51 93 51 C93 73.77 93 96.54 93 120 C90.03 120 87.06 120 84 120 C81.71100646 117.47022874 80.45959715 115.69272115 78.9375 112.75 C78.08750868 111.25561565 77.23593485 109.76213036 76.3828125 108.26953125 C75.97579102 107.53299316 75.56876953 106.79645508 75.14941406 106.03759766 C73.66709769 103.409855 72.01611244 100.92654415 70.3125 98.4375 C60.4234773 83.74352877 50.87326599 68.81858319 41.2265625 53.96484375 C38.93308995 50.43397264 36.63552942 46.90579485 34.3359375 43.37890625 C33.43609131 41.99771606 33.43609131 41.99771606 32.51806641 40.58862305 C31.36232956 38.81480158 30.20578778 37.04150425 29.04833984 35.26879883 C28.53223145 34.47626709 28.01612305 33.68373535 27.484375 32.8671875 C27.02772461 32.16706543 26.57107422 31.46694336 26.10058594 30.74560547 C25 29 25 29 24 27 C22.26592336 41.89527372 24.12544637 50.60346643 33.375 62.453125 C33.97828125 63.20271484 34.5815625 63.95230469 35.203125 64.72460938 C38.08868631 68.3786082 40.69105541 72.21710263 43.3125 76.0625 C43.78598877 76.73579346 44.25947754 77.40908691 44.74731445 78.1027832 C48 82.76888521 48 82.76888521 48 85 C48.66 85 49.32 85 50 85 C50.99 83.02 50.99 83.02 52 81 C55.74355495 82.44911805 55.74355495 82.44911805 56.84375 84.8125 C57 87 57 87 55.56640625 89.140625 C54.57447266 90.18476563 54.57447266 90.18476563 53.5625 91.25 C52.90378906 91.95640625 52.24507813 92.6628125 51.56640625 93.390625 C51.04949219 93.92171875 50.53257812 94.4528125 50 95 C45.5473599 93.49497196 43.69273343 90.00329176 41.296875 86.2265625 C40.85539124 85.54757904 40.41390747 84.86859558 39.95904541 84.16903687 C38.54707724 81.99333387 37.14829751 79.80950824 35.75 77.625 C34.82510499 76.19343745 33.89933198 74.76244175 32.97265625 73.33203125 C31.60571092 71.22125462 30.23974427 69.10989701 28.87783813 66.99586487 C25.54178664 61.81841778 22.13950337 56.68995863 18.7109375 51.57324219 C16.06139123 47.5883367 13.51153302 43.54187416 10.984375 39.47851562 C9.02348589 36.19425399 9.02348589 36.19425399 6 34 C6.0670194 41.02955882 6.15683406 48.05856233 6.26245117 55.08764648 C6.29569167 57.47852983 6.32372629 59.86949148 6.34643555 62.26049805 C6.37999683 65.69874419 6.43231524 69.13627329 6.48828125 72.57421875 C6.49467117 73.64210129 6.5010611 74.70998383 6.50764465 75.81022644 C6.55588001 82.92934169 6.55588001 82.92934169 10 89 C10.99 89.495 10.99 89.495 12 90 C12 91.98 12 93.96 12 96 C0.78 96 -10.44 96 -22 96 C-22 94.35 -22 92.7 -22 91 C-21.236875 90.773125 -20.47375 90.54625 -19.6875 90.3125 C-16.34448916 88.6798668 -15.62141459 87.31067225 -14 84 C-13.57153455 81.32009794 -13.57153455 81.32009794 -13.65942383 78.4753418 C-13.65976372 76.85422737 -13.65976372 76.85422737 -13.66011047 75.20036316 C-13.67559433 74.0449855 -13.69107819 72.88960785 -13.70703125 71.69921875 C-13.71339851 69.91195122 -13.71339851 69.91195122 -13.71989441 68.08857727 C-13.73666907 64.28798704 -13.77432041 60.48792962 -13.8125 56.6875 C-13.82754834 54.10873162 -13.84123649 51.52995492 -13.85351562 48.95117188 C-13.88656873 42.6339332 -13.93675681 36.31700467 -14 30 C-16.64 29.67 -19.28 29.34 -22 29 C-22 27.35 -22 25.7 -22 24 C-17.85612266 23.75117596 -13.71627881 23.5706703 -9.56713867 23.45068359 C-8.15914157 23.40064587 -6.75165777 23.33258007 -5.34545898 23.24560547 C-0.7689772 22.96981607 3.50664731 22.90627019 8 24 C11.25659342 26.92621438 13.19066095 30.03634543 15 34 C15.14584064 30.77131254 15.23424106 27.54347635 15.3125 24.3125 C15.3753418 22.94448242 15.3753418 22.94448242 15.43945312 21.54882812 C15.52216584 16.99962872 15.51933352 14.72706693 12.8125 10.9375 C9.94786479 8.96408464 8.09887826 8.18783548 4.6875 7.6875 C3.80449219 7.54699219 2.92148438 7.40648438 2.01171875 7.26171875 C1.34785156 7.17535156 0.68398437 7.08898437 0 7 C0 4.69 0 2.38 0 0 Z " fill="#242122" transform="translate(126,120)"/>
<path d="M0 0 C11.88 0 23.76 0 36 0 C36 2.64 36 5.28 36 8 C35.39671875 8.13535156 34.7934375 8.27070313 34.171875 8.41015625 C29.84767604 9.57490016 27.47462438 10.4674946 24.4375 13.875 C21.91800262 19.15340402 22.69201577 25.31084679 23 31 C23.25475098 30.49976318 23.50950195 29.99952637 23.77197266 29.48413086 C25.32916513 27.07933362 26.62865299 25.63879714 29 24 C34.1380721 23.10269571 39.19160264 23.33946121 44.375 23.5625 C45.79289199 23.59764765 47.21086753 23.62958066 48.62890625 23.65820312 C52.08768539 23.73498745 55.54330845 23.85557441 59 24 C59 25.65 59 27.3 59 29 C55.04 29.495 55.04 29.495 51 30 C50.9239239 37.59881171 50.871389 45.19752516 50.83520508 52.79663086 C50.82012038 55.38162913 50.79964998 57.96660182 50.77368164 60.55151367 C50.73728558 64.2674796 50.72027015 67.98310707 50.70703125 71.69921875 C50.69154739 72.85459641 50.67606354 74.00997406 50.66011047 75.20036316 C50.65977058 76.82147758 50.65977058 76.82147758 50.65942383 78.4753418 C50.65276199 79.42354294 50.64610016 80.37174408 50.63923645 81.34867859 C51.07463094 84.54847727 52.09431841 86.41145374 54 89 C56.57099402 90.34689915 56.57099402 90.34689915 59 91 C59 92.65 59 94.3 59 96 C48.11 96 37.22 96 26 96 C26 89.48 26 89.48 29 86 C29.96380077 83.1085977 30.15112024 81.17346077 30.20532227 78.16137695 C30.22526749 77.1805867 30.24521271 76.19979645 30.26576233 75.18928528 C30.28247482 74.13295395 30.29918732 73.07662262 30.31640625 71.98828125 C30.33718735 70.90491989 30.35796844 69.82155853 30.37937927 68.70536804 C30.44481797 65.24114384 30.50373353 61.7768432 30.5625 58.3125 C30.60569061 55.96548685 30.64930507 53.61848147 30.69335938 51.27148438 C30.80049357 45.51440396 30.90227064 39.75724733 31 34 C23.42035212 41.5499299 16.48822618 49.47939193 9.9453125 57.9453125 C9.30335938 58.62335938 8.66140625 59.30140625 8 60 C7.01 60 6.02 60 5 60 C4.34 58.35 3.68 56.7 3 55 C3.721875 54.42378906 4.44375 53.84757812 5.1875 53.25390625 C11.58943751 47.12760771 13.64680183 42.47274457 13.8984375 33.50756836 C13.89070312 32.3913208 13.88296875 31.27507324 13.875 30.125 C13.86984375 29.03131104 13.8646875 27.93762207 13.859375 26.81079102 C13.63262739 20.66167937 13.15452072 16.64060724 9 12 C5.99709822 9.73250274 3.56500652 8.18833551 0 7 C0 4.69 0 2.38 0 0 Z " fill="#232021" transform="translate(197,120)"/>
<path d="M0 0 C4.05850725 3.7786102 6.76310121 6.79202803 7.36889648 12.43823242 C7.36962158 13.73092041 7.37034668 15.0236084 7.37109375 16.35546875 C7.38848966 17.79752825 7.40607388 19.23958549 7.42382812 20.68164062 C7.43384317 22.92818676 7.43750989 25.17457518 7.43579102 27.42114258 C7.3123328 40.25414349 7.3123328 40.25414349 12 52 C15.15151543 54.73675736 18.87046499 56.3392744 23 57 C23 59.31 23 61.62 23 64 C9.8 64 -3.4 64 -17 64 C-17 61.69 -17 59.38 -17 57 C-16.32453125 56.84144531 -15.6490625 56.68289062 -14.953125 56.51953125 C-9.21949815 55.04542476 -9.21949815 55.04542476 -4.5 51.625 C-1.05087053 45.58902342 -0.67037266 40.73321789 -0.5859375 33.88671875 C-0.56657135 32.91716751 -0.5472052 31.94761627 -0.5272522 30.94868469 C-0.46762564 27.86171172 -0.4211386 24.77470112 -0.375 21.6875 C-0.33680466 19.59047882 -0.29775202 17.49347306 -0.2578125 15.39648438 C-0.16193791 10.26444869 -0.07784423 5.13233957 0 0 Z " fill="#242122" transform="translate(142,176)"/>
<path d="M0 0 C2.28139923 2.14387993 3.98994633 4.3332046 5.6796875 6.96484375 C6.44478638 8.14977417 6.44478638 8.14977417 7.2253418 9.35864258 C7.769729 10.20966553 8.31411621 11.06068848 8.875 11.9375 C10.04550403 13.75264859 11.21607896 15.56775146 12.38671875 17.3828125 C12.98532715 18.31383789 13.58393555 19.24486328 14.20068359 20.20410156 C17.01767478 24.58133129 19.85141234 28.94762685 22.6875 33.3125 C23.22125244 34.13451904 23.75500488 34.95653809 24.30493164 35.8034668 C29.14276694 43.24292641 34.05440552 50.6318457 39 58 C36.33333333 60.66666667 33.66666667 63.33333333 31 66 C30.34 65.67 29.68 65.34 29 65 C30.32 63.68 31.64 62.36 33 61 C32.34 59.35 31.68 57.7 31 56 C27.88214887 56.64644661 27.88214887 56.64644661 27 59 C26.34 59 25.68 59 25 59 C23.87768555 57.64916992 23.87768555 57.64916992 22.63671875 55.73046875 C22.16782227 55.01665039 21.69892578 54.30283203 21.21582031 53.56738281 C20.17956508 51.95373809 19.14377249 50.3397962 18.10839844 48.72558594 C15.33867484 44.4418126 12.52213149 40.31902894 9.31640625 36.34765625 C0.28012237 24.87421049 -1.70923883 16.26302313 -0.20629883 1.71801758 C-0.13822021 1.15107178 -0.0701416 0.58412598 0 0 Z " fill="#F6F5F5" transform="translate(149,146)"/>
<path d="M0 0 C4.00348636 1.33449545 5.09599162 3.87431726 7.1875 7.3125 C7.97904952 8.58812134 8.77204769 9.86284477 9.56640625 11.13671875 C9.96746582 11.7817334 10.36852539 12.42674805 10.78173828 13.09130859 C11.94547321 14.91457105 13.15613057 16.68938567 14.40234375 18.45703125 C15.50255859 20.02517578 15.50255859 20.02517578 16.625 21.625 C17.29789063 22.56601563 17.97078125 23.50703125 18.6640625 24.4765625 C20 27 20 27 19.7109375 29.3359375 C19.47632813 29.88507813 19.24171875 30.43421875 19 31 C18.01 31 17.02 31 16 31 C14.61328125 29.25 14.61328125 29.25 13.3125 27 C12.87550781 26.2575 12.43851563 25.515 11.98828125 24.75 C11.66214844 24.1725 11.33601562 23.595 11 23 C10.98541748 23.89307861 10.97083496 24.78615723 10.95581055 25.70629883 C10.89472923 29.02217278 10.82057522 32.33721899 10.73754883 35.65258789 C10.70430999 37.08704628 10.67627465 38.52163513 10.65356445 39.95629883 C10.61999729 42.01960807 10.56768587 44.08172303 10.51171875 46.14453125 C10.48553467 47.38565674 10.45935059 48.62678223 10.43237305 49.90551758 C10 53 10 53 8.59301758 54.9284668 C7 56 7 56 5 56 C1.97176048 54.48588024 1.38430314 53.13123694 0 50 C-0.41614752 46.18940385 -0.34849029 42.40339938 -0.29296875 38.57421875 C-0.28872391 37.47149124 -0.28447906 36.36876373 -0.28010559 35.23262024 C-0.26333905 31.71732977 -0.22568951 28.20261664 -0.1875 24.6875 C-0.17245059 22.30144058 -0.15876264 19.91537216 -0.14648438 17.52929688 C-0.11344212 11.68600158 -0.06326236 5.84304204 0 0 Z " fill="#F4F4F4" transform="translate(132,154)"/>
<path d="M0 0 C0.66 0 1.32 0 2 0 C2 22.77 2 45.54 2 69 C1.34 69 0.68 69 0 69 C-0.33 56.13 -0.66 43.26 -1 30 C-2.32 30.33 -3.64 30.66 -5 31 C-5.14616325 27.14623733 -5.23435912 23.29319449 -5.3125 19.4375 C-5.35439453 18.35146484 -5.39628906 17.26542969 -5.43945312 16.14648438 C-5.54695554 9.07282537 -4.96557465 5.18891384 0 0 Z " fill="#312F30" transform="translate(217,171)"/>
<path d="M0 0 C0.33 0 0.66 0 1 0 C1 6.93 1 13.86 1 21 C1.66 21 2.32 21 3 21 C3 21.66 3 22.32 3 23 C3.66 23 4.32 23 5 23 C4.45773019 26.79588866 2.79872437 28.47211993 0 31 C0.33 29.35 0.66 27.7 1 26 C-0.32 25.67 -1.64 25.34 -3 25 C-2.01 23.515 -2.01 23.515 -1 22 C-0.6336141 19.58286521 -0.6336141 19.58286521 -0.5859375 16.89453125 C-0.54726562 15.91162109 -0.50859375 14.92871094 -0.46875 13.91601562 C-0.4378125 12.89185547 -0.406875 11.86769531 -0.375 10.8125 C-0.33632812 9.77673828 -0.29765625 8.74097656 -0.2578125 7.67382812 C-0.16351704 5.11606378 -0.07791798 2.55830713 0 0 Z " fill="#464445" transform="translate(211,141)"/>
<path d="M0 0 C0 1.65 0 3.3 0 5 C-4.455 5.495 -4.455 5.495 -9 6 C-9.33 4.35 -9.66 2.7 -10 1 C-6.78548731 -0.60725635 -3.56387464 -0.05748185 0 0 Z " fill="#332F30" transform="translate(256,144)"/>
<path d="M0 0 C-0.309375 0.9075 -0.61875 1.815 -0.9375 2.75 C-2.024447 5.79922784 -2.024447 5.79922784 -2.375 8.25 C-3 10 -3 10 -5.0625 11.25 C-5.701875 11.4975 -6.34125 11.745 -7 12 C-7.625 10.125 -7.625 10.125 -8 8 C-7.34 7.34 -6.68 6.68 -6 6 C-6.66 5.01 -7.32 4.02 -8 3 C-5.53387212 -0.1151089 -3.89156016 -0.31553191 0 0 Z " fill="#2C2829" transform="translate(231,144)"/>
<path d="M0 0 C2.5 1.625 2.5 1.625 5 4 C5.3125 7.25 5.3125 7.25 5 10 C2.36 10 -0.28 10 -3 10 C-2.34 9.01 -1.68 8.02 -1 7 C-0.34 7 0.32 7 1 7 C0.34 6.01 -0.32 5.02 -1 4 C-0.625 1.8125 -0.625 1.8125 0 0 Z " fill="#312E2F" transform="translate(133,206)"/>
<path d="M0 0 C2.0625 1.75 2.0625 1.75 4 4 C3.9375 6.125 3.9375 6.125 3 8 C2.01 8.66 1.02 9.32 0 10 C-1.625 8.3125 -1.625 8.3125 -3 6 C-2.33228817 3.60736593 -1.77902615 1.77902615 0 0 Z " fill="#2D2A2B" transform="translate(203,171)"/>
<path d="M0 0 C2 1 2 1 2.80859375 2.828125 C3 5 3 5 1.78515625 6.921875 C1.21667969 7.52515625 0.64820313 8.1284375 0.0625 8.75 C-0.50339844 9.36359375 -1.06929687 9.9771875 -1.65234375 10.609375 C-2.31943359 11.29773438 -2.31943359 11.29773438 -3 12 C-3.33 11.34 -3.66 10.68 -4 10 C-4.66 10 -5.32 10 -6 10 C-6 9.34 -6 8.68 -6 8 C-4.68 7.67 -3.36 7.34 -2 7 C-1.855625 6.21625 -1.71125 5.4325 -1.5625 4.625 C-1 2 -1 2 0 0 Z " fill="#2A2627" transform="translate(220,154)"/>
<path d="M0 0 C2.6486859 3.19668988 4.93992341 6.39486597 7 10 C3.58978257 9.21302675 0.31114834 8.12880057 -3 7 C-2.01 4.69 -1.02 2.38 0 0 Z " fill="#2C2829" transform="translate(134,145)"/>
<path d="M0 0 C1.231394 3.69418201 0.64432764 6.2056261 0 10 C-0.99 10.33 -1.98 10.66 -3 11 C-3.75 7.75 -3.75 7.75 -4 4 C-2.0625 1.5625 -2.0625 1.5625 0 0 Z " fill="#272526" transform="translate(217,172)"/>
<path d="M0 0 C4 4.625 4 4.625 4 8 C3.34 7.67 2.68 7.34 2 7 C2 6.34 2 5.68 2 5 C0.35 5.66 -1.3 6.32 -3 7 C-3.33 6.01 -3.66 5.02 -4 4 C-2.68 2.68 -1.36 1.36 0 0 Z " fill="#302D2E" transform="translate(167,194)"/>
<path d="M0 0 C0.66 0 1.32 0 2 0 C2.66 0.66 3.32 1.32 4 2 C4.66 2 5.32 2 6 2 C6.33 3.98 6.66 5.96 7 8 C5.68 8 4.36 8 3 8 C0.82542733 5.12645755 0 3.63563409 0 0 Z " fill="#EDEDED" transform="translate(145,177)"/>
<path d="M0 0 C0 2.97 0 5.94 0 9 C-2.25245881 6.31158141 -3.88213958 4.35358125 -5 1 C-1.125 0 -1.125 0 0 0 Z " fill="#F1EFF0" transform="translate(211,192)"/>
<path d="M0 0 C1.32 0 2.64 0 4 0 C4.12375 1.134375 4.2475 2.26875 4.375 3.4375 C4.684375 5.2009375 4.684375 5.2009375 5 7 C5.66 7.33 6.32 7.66 7 8 C6.01 8 5.02 8 4 8 C2.68 5.36 1.36 2.72 0 0 Z " fill="#2E2A2B" transform="translate(163,166)"/>
<path d="M0 0 C0.66 0 1.32 0 2 0 C3.66666667 1.66666667 5.33333333 3.33333333 7 5 C6.01 5 5.02 5 4 5 C3.67 5.33 3.34 5.66 3 6 C2.01 6.495 2.01 6.495 1 7 C0.67 4.69 0.34 2.38 0 0 Z " fill="#242021" transform="translate(154,180)"/>
<path d="M0 0 C0.66 0 1.32 0 2 0 C2 2.66666667 2 5.33333333 2 8 C0.68 6.68 -0.64 5.36 -2 4 C-1.34 2.68 -0.68 1.36 0 0 Z " fill="#1E1C1D" transform="translate(202,173)"/>
<path d="M0 0 C3 1 3 1 3 1 Z M-1 1 C-0.34 1.33 0.32 1.66 1 2 C0.34 3.32 -0.32 4.64 -1 6 C-3.64 5.67 -6.28 5.34 -9 5 C-9 4.67 -9 4.34 -9 4 C-6.69 4 -4.38 4 -2 4 C-1.67 3.01 -1.34 2.02 -1 1 Z " fill="#4A4748" transform="translate(113,144)"/>
<path d="M0 0 C0.99 0 1.98 0 3 0 C3 0.66 3 1.32 3 2 C3.66 2 4.32 2 5 2 C4.34 3.32 3.68 4.64 3 6 C1.5 4.6875 1.5 4.6875 0 3 C0 2.01 0 1.02 0 0 Z " fill="#2B2728" transform="translate(208,234)"/>
</svg>
